<svg width="32" height="32" viewBox="0 0 32 32" fill="none" xmlns="http://www.w3.org/2000/svg">
<path d="M25.6479 13.0718L30.2806 8.71258L30.3076 8.68555C31.2618 7.73139 31.7978 6.43727 31.7978 5.08788C31.7978 3.73849 31.2618 2.44437 30.3076 1.49021C29.3534 0.536043 28.0593 0 26.7099 0C25.3605 0 24.0664 0.536043 23.1122 1.49021C23.1122 1.49974 23.0948 1.50769 23.0852 1.51723L18.726 6.14985L5.53086 1.34871C5.30344 1.266 5.05713 1.24988 4.82087 1.30226C4.58461 1.35464 4.36819 1.47333 4.19703 1.64441L0.381559 5.45989C0.248604 5.59295 0.146819 5.75384 0.0835385 5.93098C0.020258 6.10812 -0.00294249 6.29709 0.0156088 6.48428C0.03416 6.67146 0.094001 6.8522 0.19082 7.01347C0.287639 7.17474 0.419026 7.31253 0.575512 7.41691L10.7326 14.1878L8.37657 16.5359H5.08731C4.75045 16.536 4.42741 16.6698 4.18908 16.9079L0.37361 20.7234C0.22481 20.8718 0.115115 21.0548 0.0543369 21.256C-0.00644145 21.4572 -0.0164092 21.6703 0.0253251 21.8763C0.0670593 22.0823 0.159195 22.2748 0.293491 22.4364C0.427788 22.5981 0.60006 22.724 0.794902 22.8028L6.64847 25.1446L8.98545 30.987L8.99499 31.0124C9.07584 31.2081 9.20427 31.3805 9.36862 31.514C9.53298 31.6475 9.72807 31.7379 9.93619 31.7769C10.1443 31.8159 10.3589 31.8023 10.5604 31.7374C10.762 31.6725 10.9441 31.5583 11.0903 31.4051L14.8851 27.6087C15.0039 27.4911 15.0983 27.3512 15.1629 27.1971C15.2276 27.043 15.2612 26.8776 15.2619 26.7105V23.4212L17.6084 21.0747L24.3793 31.2318C24.4837 31.3883 24.6215 31.5197 24.7827 31.6165C24.944 31.7133 25.1247 31.7732 25.3119 31.7917C25.4991 31.8103 25.6881 31.7871 25.8652 31.7238C26.0424 31.6605 26.2033 31.5587 26.3363 31.4258L30.1518 27.6103C30.3229 27.4391 30.4416 27.2227 30.4939 26.9865C30.5463 26.7502 30.5302 26.5039 30.4475 26.2765L25.6479 13.0718ZM25.6368 28.5292L18.8659 18.3737C18.7621 18.216 18.6245 18.0834 18.4631 17.9855C18.3017 17.8876 18.1205 17.8269 17.9327 17.8077C17.8898 17.8077 17.8485 17.8077 17.8071 17.8077C17.64 17.8078 17.4744 17.8408 17.32 17.9049C17.1656 17.969 17.0254 18.063 16.9073 18.1813L13.0919 21.9968C12.8532 22.2349 12.7188 22.5579 12.7183 22.895V26.1843L10.6404 28.2621L8.81217 23.6899C8.7482 23.5312 8.65285 23.387 8.53184 23.266C8.41082 23.1449 8.26663 23.0496 8.10789 22.9856L3.53886 21.1574L5.61512 19.0795H8.90278C9.06985 19.0797 9.23531 19.0469 9.3897 18.9831C9.5441 18.9192 9.6844 18.8256 9.8026 18.7075L13.6181 14.8921C13.7513 14.759 13.8534 14.598 13.9168 14.4207C13.9803 14.2434 14.0035 14.0542 13.985 13.8668C13.9664 13.6794 13.9065 13.4985 13.8095 13.3371C13.7125 13.1757 13.5809 13.0378 13.4241 12.9334L3.2686 6.16098L5.4148 4.01637L18.645 8.82704C18.8781 8.91269 19.1311 8.92823 19.373 8.87173C19.6148 8.81522 19.8348 8.68916 20.0058 8.50909L24.9246 3.27712C25.404 2.81171 26.0473 2.55363 26.7155 2.55866C27.3837 2.56369 28.023 2.83142 28.4954 3.304C28.9677 3.77658 29.2352 4.41605 29.2399 5.08421C29.2447 5.75237 28.9863 6.39557 28.5207 6.87479L23.2951 11.792C23.115 11.963 22.9889 12.183 22.9324 12.4248C22.8759 12.6667 22.8915 12.9197 22.9771 13.1528L27.7878 26.383L25.6368 28.5292Z" fill="#3B2963"/>
</svg>
