<svg width="32" height="30" viewBox="0 0 32 30" fill="none" xmlns="http://www.w3.org/2000/svg">
<path d="M31.4842 29.0409C31.3912 29.1572 31.2762 29.2541 31.1458 29.326C31.0154 29.3978 30.8721 29.4433 30.7241 29.4597C30.5761 29.4762 30.4263 29.4633 30.2833 29.4218C30.1402 29.3803 30.0068 29.3111 29.8906 29.218C29.8382 29.1755 24.3915 24.9329 15.8666 24.9329C7.34173 24.9329 1.89364 29.1826 1.84264 29.2194C1.72628 29.3124 1.59274 29.3816 1.44965 29.423C1.30655 29.4644 1.1567 29.4772 1.00865 29.4607C0.709655 29.4274 0.436148 29.2766 0.2483 29.0416C0.0604526 28.8066 -0.0263491 28.5066 0.00699088 28.2076C0.0403308 27.9086 0.191081 27.6351 0.426079 27.4473C0.656978 27.2631 5.88268 23.1608 14.3495 22.7089C13.909 20.9541 13.7517 19.1403 13.8834 17.3359C14.1299 14.2605 15.4303 10.1638 19.9746 7.06862C19.1993 6.87634 18.402 6.78633 17.6033 6.80089C14.9118 6.88872 13.2205 8.45969 12.4329 11.6059C12.3721 11.8516 12.2309 12.0699 12.0317 12.2259C11.8324 12.382 11.5867 12.4669 11.3336 12.4671C11.2409 12.4676 11.1486 12.4562 11.0588 12.4331C10.7673 12.3602 10.5167 12.1745 10.3621 11.9168C10.2074 11.6591 10.1615 11.3506 10.2344 11.0591C11.5447 5.82488 14.9246 4.62505 17.5296 4.54289C18.5643 4.52038 19.5972 4.63711 20.6008 4.88995C20.0582 3.99327 19.2649 3.05834 18.1629 2.58804C16.7463 1.98742 15.0223 2.24948 13.0193 3.36856C12.7563 3.51508 12.4459 3.55113 12.1563 3.46878C11.8668 3.38643 11.6218 3.19242 11.4753 2.92943C11.3287 2.66644 11.2927 2.35602 11.375 2.06646C11.4574 1.77689 11.6514 1.5319 11.9144 1.38538C14.569 -0.0949305 16.9744 -0.390992 19.0652 0.507108C20.8345 1.26639 22.0017 2.74244 22.7298 4.04851C23.6053 2.68295 24.696 1.75793 25.9015 1.36555C27.5816 0.817336 29.3919 1.26355 31.2845 2.69286C31.5137 2.87761 31.662 3.14431 31.698 3.43648C31.734 3.72866 31.6549 4.02339 31.4775 4.25828C31.3 4.49318 31.0381 4.64979 30.7472 4.69498C30.4563 4.74017 30.1593 4.67038 29.9189 4.5004C28.6567 3.54705 27.5433 3.21699 26.6112 3.51872C25.5786 3.85161 24.7881 4.93528 24.2923 5.87163C25.3116 6.07826 26.2924 6.44294 27.1991 6.95247C29.2687 8.13529 31.7321 10.6426 31.7321 15.8683C31.7321 16.1689 31.6127 16.4571 31.4002 16.6696C31.1877 16.8822 30.8994 17.0016 30.5989 17.0016C30.2983 17.0016 30.01 16.8822 29.7975 16.6696C29.585 16.4571 29.4656 16.1689 29.4656 15.8683C29.4656 12.5451 28.3224 10.2021 26.0659 8.92715C25.803 8.77786 25.5309 8.64538 25.2513 8.53052C25.9649 9.98112 26.2151 11.616 25.9681 13.2137C25.79 14.3956 25.3622 15.5261 24.713 16.5298C24.5393 16.7735 24.2763 16.9385 23.9814 16.9889C23.6864 17.0394 23.3835 16.9711 23.1387 16.7991C22.8939 16.627 22.7271 16.3651 22.6746 16.0705C22.6222 15.7759 22.6884 15.4726 22.8588 15.2266C22.9636 15.0722 25.172 11.773 22.397 8.23304C18.5722 10.3876 16.463 13.5097 16.1414 17.5243C16.0162 19.2635 16.1998 21.0111 16.684 22.6862C25.5587 22.9426 31.0649 27.266 31.3029 27.4544C31.5364 27.6414 31.6865 27.9131 31.7205 28.2103C31.7544 28.5075 31.6695 28.8061 31.4842 29.0409ZM1.13436 16.4335C1.13436 15.649 1.36698 14.8822 1.80281 14.2299C2.23865 13.5776 2.85811 13.0693 3.58287 12.7691C4.30763 12.4689 5.10513 12.3903 5.87454 12.5434C6.64394 12.6964 7.35068 13.0742 7.90538 13.6289C8.46009 14.1836 8.83785 14.8903 8.9909 15.6597C9.14394 16.4291 9.06539 17.2266 8.76519 17.9514C8.46498 18.6761 7.9566 19.2956 7.30433 19.7314C6.65207 20.1673 5.88521 20.3999 5.10073 20.3999C4.04879 20.3999 3.03992 19.982 2.29608 19.2382C1.55224 18.4943 1.13436 17.4855 1.13436 16.4335ZM3.40086 16.4335C3.40086 16.7697 3.50056 17.0984 3.68734 17.3779C3.87412 17.6575 4.13961 17.8753 4.45022 18.004C4.76083 18.1327 5.10262 18.1663 5.43236 18.1007C5.76211 18.0351 6.065 17.8732 6.30273 17.6355C6.54046 17.3978 6.70236 17.0949 6.76795 16.7651C6.83354 16.4354 6.79987 16.0936 6.67121 15.783C6.54255 15.4724 6.32468 15.2069 6.04513 15.0201C5.76559 14.8333 5.43694 14.7336 5.10073 14.7336C4.6499 14.7336 4.21753 14.9127 3.89874 15.2315C3.57995 15.5503 3.40086 15.9827 3.40086 16.4335Z" fill="#3B2963"/>
</svg>
