<svg width="37" height="29" viewBox="0 0 37 29" fill="none" xmlns="http://www.w3.org/2000/svg">
<path d="M34.9847 26.5401H32.572V9.65096C32.8919 9.65096 33.1988 9.52386 33.425 9.29762C33.6513 9.07138 33.7784 8.76454 33.7784 8.44459C33.7784 8.12464 33.6513 7.8178 33.425 7.59156C33.1988 7.36532 32.8919 7.23822 32.572 7.23822H25.3338V2.41274C25.6537 2.41274 25.9606 2.28564 26.1868 2.0594C26.413 1.83316 26.5401 1.52632 26.5401 1.20637C26.5401 0.886421 26.413 0.579576 26.1868 0.353338C25.9606 0.1271 25.6537 0 25.3338 0H3.61911C3.29916 0 2.99232 0.1271 2.76608 0.353338C2.53984 0.579576 2.41274 0.886421 2.41274 1.20637C2.41274 1.52632 2.53984 1.83316 2.76608 2.0594C2.99232 2.28564 3.29916 2.41274 3.61911 2.41274V26.5401H1.20637C0.886421 26.5401 0.579576 26.6672 0.353338 26.8935C0.127099 27.1197 0 27.4266 0 27.7465C0 28.0665 0.127099 28.3733 0.353338 28.5995C0.579576 28.8258 0.886421 28.9529 1.20637 28.9529H34.9847C35.3047 28.9529 35.6115 28.8258 35.8378 28.5995C36.064 28.3733 36.1911 28.0665 36.1911 27.7465C36.1911 27.4266 36.064 27.1197 35.8378 26.8935C35.6115 26.6672 35.3047 26.5401 34.9847 26.5401ZM30.1593 9.65096V26.5401H25.3338V9.65096H30.1593ZM6.03185 2.41274H22.921V26.5401H19.3019V19.3019C19.3019 18.982 19.1748 18.6751 18.9486 18.4489C18.7223 18.2226 18.4155 18.0956 18.0956 18.0956H10.8573C10.5374 18.0956 10.2305 18.2226 10.0043 18.4489C9.77806 18.6751 9.65096 18.982 9.65096 19.3019V26.5401H6.03185V2.41274ZM16.8892 26.5401H12.0637V20.5083H16.8892V26.5401ZM8.44459 7.23822C8.44459 6.91827 8.57169 6.61143 8.79793 6.38519C9.02417 6.15895 9.33101 6.03185 9.65096 6.03185H12.0637C12.3836 6.03185 12.6905 6.15895 12.9167 6.38519C13.143 6.61143 13.2701 6.91827 13.2701 7.23822C13.2701 7.55817 13.143 7.86501 12.9167 8.09125C12.6905 8.31749 12.3836 8.44459 12.0637 8.44459H9.65096C9.33101 8.44459 9.02417 8.31749 8.79793 8.09125C8.57169 7.86501 8.44459 7.55817 8.44459 7.23822ZM15.6828 7.23822C15.6828 6.91827 15.8099 6.61143 16.0361 6.38519C16.2624 6.15895 16.5692 6.03185 16.8892 6.03185H19.3019C19.6219 6.03185 19.9287 6.15895 20.155 6.38519C20.3812 6.61143 20.5083 6.91827 20.5083 7.23822C20.5083 7.55817 20.3812 7.86501 20.155 8.09125C19.9287 8.31749 19.6219 8.44459 19.3019 8.44459H16.8892C16.5692 8.44459 16.2624 8.31749 16.0361 8.09125C15.8099 7.86501 15.6828 7.55817 15.6828 7.23822ZM8.44459 13.2701C8.44459 12.9501 8.57169 12.6433 8.79793 12.417C9.02417 12.1908 9.33101 12.0637 9.65096 12.0637H12.0637C12.3836 12.0637 12.6905 12.1908 12.9167 12.417C13.143 12.6433 13.2701 12.9501 13.2701 13.2701C13.2701 13.59 13.143 13.8969 12.9167 14.1231C12.6905 14.3493 12.3836 14.4764 12.0637 14.4764H9.65096C9.33101 14.4764 9.02417 14.3493 8.79793 14.1231C8.57169 13.8969 8.44459 13.59 8.44459 13.2701ZM15.6828 13.2701C15.6828 12.9501 15.8099 12.6433 16.0361 12.417C16.2624 12.1908 16.5692 12.0637 16.8892 12.0637H19.3019C19.6219 12.0637 19.9287 12.1908 20.155 12.417C20.3812 12.6433 20.5083 12.9501 20.5083 13.2701C20.5083 13.59 20.3812 13.8969 20.155 14.1231C19.9287 14.3493 19.6219 14.4764 19.3019 14.4764H16.8892C16.5692 14.4764 16.2624 14.3493 16.0361 14.1231C15.8099 13.8969 15.6828 13.59 15.6828 13.2701Z" fill="#3B2963"/>
</svg>
