<svg width="33" height="32" viewBox="0 0 33 32" fill="none" xmlns="http://www.w3.org/2000/svg">
<path d="M29.3837 0H2.67125C1.96279 0 1.28335 0.261461 0.78239 0.726864C0.281434 1.19227 0 1.82349 0 2.48167V11.1675C0 19.3446 4.26064 24.3002 7.8351 27.0176C11.685 29.9429 15.5149 30.9356 15.6819 30.9774C15.9115 31.0354 16.1535 31.0354 16.3831 30.9774C16.5501 30.9356 20.3749 29.9429 24.2299 27.0176C27.7943 24.3002 32.055 19.3446 32.055 11.1675V2.48167C32.055 1.82349 31.7735 1.19227 31.2726 0.726864C30.7716 0.261461 30.0922 0 29.3837 0ZM29.3837 11.1675C29.3837 16.9172 27.1031 21.5843 22.6054 25.0369C20.6475 26.5348 18.4208 27.7004 16.0275 28.4802C13.6654 27.714 11.4662 26.5691 9.52968 25.0974C4.97854 21.6386 2.67125 16.9529 2.67125 11.1675V2.48167H29.3837V11.1675ZM8.40441 15.7679C8.1538 15.5351 8.013 15.2193 8.013 14.89C8.013 14.5607 8.1538 14.245 8.40441 14.0121C8.65503 13.7793 8.99494 13.6485 9.34937 13.6485C9.70379 13.6485 10.0437 13.7793 10.2943 14.0121L13.3562 16.8583L21.7607 9.04878C21.8847 8.9335 22.0321 8.84205 22.1942 8.77966C22.3563 8.71726 22.5301 8.68515 22.7056 8.68515C22.8811 8.68515 23.0549 8.71726 23.217 8.77966C23.3791 8.84205 23.5265 8.9335 23.6506 9.04878C23.7747 9.16407 23.8731 9.30093 23.9402 9.45156C24.0074 9.60219 24.042 9.76364 24.042 9.92667C24.042 10.0897 24.0074 10.2512 23.9402 10.4018C23.8731 10.5524 23.7747 10.6893 23.6506 10.8046L14.3012 19.4904C14.1771 19.6058 14.0298 19.6973 13.8677 19.7597C13.7056 19.8222 13.5318 19.8543 13.3562 19.8543C13.1807 19.8543 13.0069 19.8222 12.8448 19.7597C12.6826 19.6973 12.5353 19.6058 12.4113 19.4904L8.40441 15.7679Z" fill="#3B2963"/>
</svg>
