<svg width="32" height="31" viewBox="0 0 32 31" fill="none" xmlns="http://www.w3.org/2000/svg">
<path d="M22.2401 10.1041V7.46828H31.4656V16.6389H28.8298V11.9438L19.467 21.3066L10.1041 30.6694L9.17061 29.7358L8.23707 28.8023L17.5862 19.4532L26.9352 10.1041H22.2401ZM11.9575 9.32162C17.0837 4.19404 21.2915 0 21.3066 0C21.323 0 21.7486 0.414599 22.2538 0.919807L23.1736 1.83961L13.8383 11.175C8.70384 16.3094 4.50293 20.5282 4.50293 20.5515C4.50293 20.5735 5.55316 20.5927 6.83677 20.5927H9.17061V23.1736H0V14.003H2.63586V18.6432L11.9575 9.32162Z" fill="#3B2963"/>
</svg>
