<svg width="24" height="32" viewBox="0 0 24 32" fill="none" xmlns="http://www.w3.org/2000/svg">
<path d="M0 0V31.0209H23.8623V0H0ZM2.38623 2.38623H21.476V28.6347H2.38623V2.38623ZM11.9311 5.96557C7.99293 5.96557 4.77245 9.18604 4.77245 13.1242C4.77245 17.0624 7.99293 20.2829 11.9311 20.2829C15.8693 20.2829 19.0898 17.0624 19.0898 13.1242C19.0898 9.18604 15.8693 5.96557 11.9311 5.96557ZM12.7514 8.46365C13.3293 8.56152 13.8699 8.73862 14.3546 9.02292L14.4292 9.88047L13.8699 9.65676L13.4225 10.0296L13.4971 11.1109L14.6529 10.7753L16.0697 11.2227L15.6969 11.8566L14.8393 11.3346L13.9072 11.4837L13.0124 12.1548L12.4904 13.7208L13.4971 14.5411C13.4971 14.5411 14.5597 14.3546 14.6156 14.3546C14.6716 14.3546 15.0631 15.324 15.0631 15.324L14.4665 17.151C13.7348 17.6077 12.8679 17.8967 11.9311 17.8967C11.6515 17.8967 11.3765 17.8314 11.1109 17.7848L10.8872 17.412L11.4464 15.324L9.3212 13.7208H7.3451L7.19596 13.4225C7.1913 13.32 7.15868 13.2268 7.15868 13.1242C7.15868 12.8679 7.19596 12.6209 7.23325 12.3785L8.23994 11.5956L10.3652 10.5889L10.0296 9.20934L10.9617 9.02292L11.3719 9.61947L12.9751 9.3212L12.7514 8.46365ZM8.42636 16.368H8.79921L9.50762 17.2256C9.10215 16.9879 8.74328 16.7082 8.42636 16.368ZM4.77245 22.6691V25.0554H19.0898V22.6691H4.77245Z" fill="#3B2963"/>
</svg>
