<svg width="42" height="42" viewBox="0 0 42 42" fill="none" xmlns="http://www.w3.org/2000/svg">
<path d="M32.3193 1.52014C34.3465 -0.506667 37.6878 -0.506838 39.7148 1.52014C41.742 3.54731 41.742 6.88945 39.7148 8.91663L30.6621 17.9684L36.4023 32.9537L36.8262 33.9938L30.9316 39.8873L21.0713 27.5602L18.7979 29.8336L19.8379 35.111L20.0312 35.9967L14.792 41.236L13.6367 39.4635L8.89844 32.3375L1.77246 27.5992L0 26.443L5.23926 21.2047L6.125 21.3971L11.4023 22.4371L13.6748 20.1647L1.34863 10.3033L7.24219 4.40979L8.28223 4.83362L23.2666 10.5729L32.3193 1.52014ZM37.249 3.98596C36.5508 3.28787 35.4823 3.2878 34.7842 3.98596L24.1143 14.6559L23.0742 14.2321L8.08984 8.4928L6.58691 9.99475L18.9141 19.8561L12.5195 26.2506L11.6338 26.0582L6.35645 25.0182L5.46973 25.9039L11.0938 29.6793L11.4023 29.8336L11.5566 30.1412L15.3311 35.7653L16.2178 34.8795L15.1768 29.6022L14.9844 28.7164L21.3789 22.3219L31.2402 34.6481L32.7422 33.1461L27.0029 18.1617L26.5791 17.1217L37.249 6.45081C37.9472 5.75261 37.9472 4.68416 37.249 3.98596Z" fill="#FBFBFB"/>
</svg>
