<svg width="15" height="13" viewBox="0 0 15 13" fill="none" xmlns="http://www.w3.org/2000/svg">
<path d="M5.91759 3.35093C5.63954 3.62898 5.63954 4.07102 5.91759 4.34907L7.27222 5.7037H0.712963C0.320833 5.7037 0 6.02454 0 6.41667C0 6.8088 0.320833 7.12963 0.712963 7.12963H7.27222L5.91759 8.48426C5.63954 8.76231 5.63954 9.20435 5.91759 9.48241C6.19565 9.76046 6.63769 9.76046 6.91574 9.48241L9.47528 6.92287C9.75333 6.64481 9.75333 6.19565 9.47528 5.91759L6.91574 3.35093C6.63769 3.07287 6.19565 3.07287 5.91759 3.35093ZM12.8333 11.4074H7.84259C7.45046 11.4074 7.12963 11.7282 7.12963 12.1204C7.12963 12.5125 7.45046 12.8333 7.84259 12.8333H12.8333C13.6176 12.8333 14.2593 12.1917 14.2593 11.4074V1.42593C14.2593 0.641667 13.6176 0 12.8333 0H7.84259C7.45046 0 7.12963 0.320833 7.12963 0.712963C7.12963 1.10509 7.45046 1.42593 7.84259 1.42593H12.8333V11.4074Z" fill="#3B2963"/>
</svg>
