<svg width="42" height="38" viewBox="0 0 42 38" fill="none" xmlns="http://www.w3.org/2000/svg">
<path d="M25.7725 15.8486V37.6387H0V15.8486L12.8867 5.94336L25.7725 15.8486ZM41.2354 37.6387H29.208V33.6768H37.7998V3.96191H20.6182V7.11133L17.1816 4.47754V0H41.2354V37.6387ZM3.43652 17.8281V33.6768H8.59082V21.791H17.1816V33.6768H22.3359V17.8281L12.8867 10.8955L3.43652 17.8281ZM34.3623 27.7334H30.9268V23.7725H34.3623V27.7334ZM34.3623 19.8096H30.9268V15.8486H34.3623V19.8096ZM27.4912 11.8857H26.8203L24.0537 9.7666V7.92383H27.4912V11.8857ZM34.3623 11.8857H30.9268V7.92383H34.3623V11.8857Z" fill="#FBFBFB"/>
</svg>
