<svg width="21" height="27" viewBox="0 0 21 27" fill="none" xmlns="http://www.w3.org/2000/svg">
<path d="M10.0771 0C8.4069 9.34324e-05 6.80514 0.663761 5.62402 1.84473C4.44286 3.02594 3.7793 4.62837 3.7793 6.29883V8.81836H2.51953C1.12123 8.81836 0 9.93959 0 11.3379V23.9346C0.00019455 25.3201 1.12135 26.4541 2.51953 26.4541H17.6357C18.3037 26.4541 18.9446 26.189 19.417 25.7168C19.8894 25.2444 20.1552 24.6026 20.1553 23.9346V11.3379C20.1553 10.6698 19.8893 10.0291 19.417 9.55664C18.9445 9.08418 18.3039 8.8184 17.6357 8.81836H16.376V6.29883C16.376 5.47187 16.2129 4.65271 15.8965 3.88867C15.58 3.12459 15.116 2.42956 14.5312 1.84473C13.9465 1.26005 13.2522 0.795997 12.4883 0.479492C11.7241 0.162973 10.9043 1.90385e-05 10.0771 0ZM17.6357 11.3379V23.9346H2.51953V11.3379H17.6357ZM10.0771 15.1172C8.67901 15.1174 7.55762 16.2385 7.55762 17.6367C7.558 19.022 8.67925 20.1561 10.0771 20.1562C10.7452 20.1562 11.3869 19.8904 11.8594 19.418C12.3316 18.9457 12.5965 18.3046 12.5967 17.6367C12.5967 16.9686 12.3317 16.327 11.8594 15.8545C11.3869 15.382 10.7453 15.1172 10.0771 15.1172ZM10.0771 2.51953C11.0794 2.51957 12.0413 2.91825 12.75 3.62695C13.4584 4.33563 13.8564 5.2968 13.8564 6.29883V8.81836H6.29785V6.29883C6.29785 5.29667 6.69673 4.33566 7.40527 3.62695C8.11393 2.9183 9.07497 2.51962 10.0771 2.51953Z" fill="#3B2963"/>
</svg>
