<svg width="26" height="26" viewBox="0 0 26 26" fill="none" xmlns="http://www.w3.org/2000/svg">
<path d="M23.9853 17.6363C22.2922 17.6363 20.4581 17.3541 18.9061 16.7897C18.765 16.7897 18.6239 16.7897 18.4828 16.7897C18.0595 16.7897 17.7773 16.9308 17.4952 17.213L14.3912 20.317C10.4407 18.2006 7.0545 14.9555 5.07924 11.005L8.18322 7.90104C8.60649 7.47777 8.74758 6.91341 8.4654 6.49014C8.04213 4.93815 7.75995 3.10398 7.75995 1.4109C7.75995 0.70545 7.0545 0 6.34905 0H1.4109C0.70545 0 0 0.70545 0 1.4109C0 14.6734 10.7228 25.3962 23.9853 25.3962C24.6908 25.3962 25.3962 24.6908 25.3962 23.9853V19.0472C25.3962 18.3417 24.6908 17.6363 23.9853 17.6363ZM2.8218 2.8218H4.93815C5.07924 4.09161 5.36142 5.36142 5.6436 6.49014L3.95052 8.18322C3.38616 6.49014 2.96289 4.65597 2.8218 2.8218ZM22.5744 22.5744C20.7402 22.4333 18.9061 22.01 17.213 21.4457L18.9061 19.7526C20.0348 20.0348 21.3046 20.317 22.5744 20.317V22.5744Z" fill="#3B2963" fill-opacity="0.7"/>
</svg>
