<svg width="11" height="14" viewBox="0 0 11 14" fill="none" xmlns="http://www.w3.org/2000/svg">
<path d="M5.14941 0C4.29601 0.00010221 3.4765 0.338925 2.87305 0.942383C2.26972 1.5459 1.93066 2.36537 1.93066 3.21875V4.50586H1.28711C0.572867 4.50608 5.14984e-05 5.07869 0 5.79297V12.2295C0.000164032 12.9372 0.572938 13.5164 1.28711 13.5166H9.01074C9.35197 13.5166 9.67952 13.3808 9.9209 13.1396C10.1622 12.8983 10.2987 12.5708 10.2988 12.2295V5.79297C10.2988 5.45158 10.1623 5.12421 9.9209 4.88281C9.6795 4.64155 9.35205 4.50586 9.01074 4.50586H8.36719V3.21875C8.36719 2.79626 8.28369 2.37765 8.12207 1.9873C7.96034 1.59684 7.72365 1.24123 7.4248 0.942383C7.12604 0.643672 6.77117 0.406814 6.38086 0.245117C5.99056 0.083484 5.57186 4.24938e-05 5.14941 0ZM9.01074 5.79297V12.2295H1.28711V5.79297H9.01074ZM5.14941 7.72363C4.43513 7.72384 3.86133 8.29738 3.86133 9.01172C3.86168 9.71932 4.43535 10.2986 5.14941 10.2988C5.49055 10.2987 5.81826 10.163 6.05957 9.92188C6.30084 9.68061 6.43635 9.3529 6.43652 9.01172C6.43652 8.67046 6.30078 8.34295 6.05957 8.10156C5.81823 7.86024 5.4907 7.72372 5.14941 7.72363ZM5.14941 1.28711C5.66133 1.2872 6.15262 1.49061 6.51465 1.85254C6.87678 2.21467 7.08008 2.70662 7.08008 3.21875V4.50586H3.21777V3.21875C3.21777 2.70679 3.42129 2.21464 3.7832 1.85254C4.14524 1.4905 4.63742 1.28721 5.14941 1.28711Z" fill="#3B2963"/>
</svg>
