<svg width="36" height="43" viewBox="0 0 36 43" fill="none" xmlns="http://www.w3.org/2000/svg">
<path d="M17.2757 0.131866C17.142 0.206589 16.7994 0.472275 16.5236 0.729656C12.8135 4.15034 8.4014 5.86069 2.69411 6.09316C1.10643 6.15958 0.989438 6.18449 0.638477 6.48339C0.0451862 7.00645 0.0702549 6.8321 0.0201176 11.1163C-0.0550883 17.227 0.0702549 19.9503 0.571628 23.0721C1.66629 29.8802 4.71631 35.0279 9.79689 38.6146C11.535 39.8434 13.716 41.0058 16.0223 41.9274C17.2506 42.4172 17.4094 42.4587 17.986 42.4587C18.5542 42.4587 18.7213 42.4172 19.8243 41.9689C21.2783 41.3877 22.8159 40.6654 23.8604 40.0842C30.3866 36.3978 34.1469 30.8516 35.4003 23.0638C35.9017 19.9503 36.027 17.2187 35.9518 11.1163C35.9017 6.8321 35.9268 7.00645 35.3335 6.48339C34.9825 6.18449 34.8655 6.15958 33.2778 6.09316C27.5873 5.86899 23.1418 4.14204 19.4817 0.762867C19.1893 0.48888 18.83 0.198288 18.6795 0.123562C18.3369 -0.0424881 17.6016 -0.0424881 17.2757 0.131866ZM18.7965 4.23337C22.3897 7.09778 26.9104 8.76662 31.9492 9.08212L32.835 9.14024L32.8935 12.4779C32.9937 18.3562 32.718 21.7021 31.8573 25.0896C30.5788 30.1625 27.7878 33.9817 23.3172 36.8212C22.3396 37.4439 19.8076 38.6976 18.7213 39.1045L17.986 39.3702L17.259 39.1045C15.9805 38.6312 13.3984 37.3194 12.2202 36.539C8.00866 33.7493 5.35974 30.0131 4.11466 25.0896C3.25397 21.7021 2.97822 18.3562 3.07849 12.4779L3.13698 9.14024L4.02274 9.08212C6.91399 8.89946 10.0726 8.16052 12.4207 7.11439C14.0418 6.39206 16.1309 5.10515 17.3175 4.10883C17.6183 3.85975 17.9024 3.65219 17.9609 3.65219C18.0194 3.64388 18.3954 3.90957 18.7965 4.23337Z" fill="#FBFBFB"/>
<path d="M23.8084 15.4563C23.6266 15.5305 22.1641 16.9329 19.867 19.2263L16.2065 22.8726L14.5373 21.2062C12.7112 19.3995 12.6782 19.3748 11.8519 19.4738C10.9925 19.5645 10.4307 20.4555 10.6703 21.3547C10.7529 21.6682 11.0504 22.0064 13.0087 23.978C14.463 25.4382 15.3719 26.2879 15.5867 26.3869C15.9916 26.5766 16.4461 26.5849 16.851 26.4199C17.0576 26.3291 18.4788 24.968 21.3543 22.1054C25.9568 17.5187 26.0311 17.4279 25.9237 16.669C25.7833 15.6543 24.7339 15.0603 23.8084 15.4563Z" fill="#FBFBFB"/>
</svg>
