<svg width="41" height="41" viewBox="0 0 41 41" fill="none" xmlns="http://www.w3.org/2000/svg">
<path d="M18.6457 0.0496029C19.4656 -0.0504756 22.1376 0.0102864 22.8967 0.147894C24.4614 0.4106 25.9743 0.912779 27.3871 1.63477C31.363 3.64528 34.262 7.29278 35.3265 11.6212C35.6087 12.7471 35.7248 13.721 35.7712 15.358L35.8141 16.9092L36.2142 16.9539C38.4612 17.2077 40.1759 18.6731 40.7224 20.8105C40.8582 21.3413 40.8653 21.5968 40.8635 25.5231C40.8635 30.1839 40.8546 30.2697 40.3705 31.2491C39.8669 32.2963 39.0202 33.1416 37.9718 33.6438C37.368 33.9369 36.5286 34.1442 35.9534 34.1442H35.6069L35.4444 34.6982C34.537 37.8524 31.9042 40.2079 28.6695 40.7565C28.1784 40.8423 27.3031 40.8637 24.2453 40.8637H20.4319V37.5129L28.1123 37.4628L28.6856 37.2841C30.0324 36.8642 31.2148 35.8795 31.8239 34.666C31.9239 34.4659 32.0061 34.2657 32.0061 34.2228C32.0061 34.171 31.7756 34.1442 31.3273 34.1442H30.6486V16.9164H32.3633L32.3615 15.6833C32.3597 13.8729 32.1489 12.5951 31.6077 11.1404C30.0627 7.02292 26.3922 4.08133 22.0394 3.47193C20.9713 3.35755 19.8925 3.35755 18.8243 3.47193C14.4697 4.07955 10.7974 7.02114 9.25598 11.1404C8.713 12.6023 8.50045 13.8747 8.50045 15.6654V16.9164H10.2151V34.0119L7.19656 33.9816C4.60666 33.9565 4.11904 33.9351 3.75646 33.8296C2.30968 33.4079 1.10761 32.391 0.452096 31.0328C0.0127059 30.1124 0.000202872 29.9713 0.000202872 25.4516C-0.00158327 21.5968 0.0055613 21.3395 0.141308 20.8105C0.689653 18.6695 2.39899 17.2077 4.64953 16.9539L5.04962 16.9092L5.09249 15.358C5.11035 14.5896 5.16215 13.8211 5.24967 13.0562C5.58189 10.8384 6.3928 8.72068 7.62524 6.84957C10.0919 3.09842 14.1304 0.607183 18.6457 0.0496029ZM36.316 20.4245C36.166 20.3834 35.5998 20.3477 35.0604 20.3477H34.078V30.8041L35.0961 30.7683C36.2267 30.729 36.5232 30.6468 36.9251 30.2626C37.0769 30.1089 37.2091 29.9355 37.318 29.7479C37.4699 29.4655 37.4716 29.4244 37.4716 25.5303C37.4716 21.629 37.4699 21.5968 37.3162 21.3073C37.1091 20.9213 36.6536 20.5174 36.316 20.4245ZM6.78575 30.5699V20.3477L5.76765 20.3512C5.0907 20.353 4.65667 20.387 4.4727 20.4531C4.1369 20.5728 3.75467 20.9267 3.54569 21.3127C3.39387 21.5933 3.39208 21.6612 3.37244 25.2712C3.35279 28.7185 3.34922 29.3601 3.65107 29.7854C3.72252 29.8837 3.81004 29.9713 3.91721 30.0785C4.3441 30.5056 4.58701 30.5699 5.80337 30.5699H6.78575Z" fill="#FBFBFB"/>
</svg>
