<svg width="26" height="30" viewBox="0 0 26 30" fill="none" xmlns="http://www.w3.org/2000/svg">
<path d="M17.7773 17.2324C21.9836 17.2324 25.3965 20.6453 25.3965 24.8516V26.3027C25.3965 27.805 24.177 29.0234 22.6748 29.0234H2.7207C1.21862 29.0233 0 27.8049 0 26.3027V24.8516C5.88688e-06 20.6453 3.4129 17.2324 7.61914 17.2324C9.25156 17.2325 10.0284 18.1396 12.6982 18.1396C15.3681 18.1396 16.1504 17.2324 17.7773 17.2324ZM17.7773 19.9541C16.944 19.9541 15.6289 20.8603 12.6982 20.8604C9.79048 20.8604 8.44681 19.9543 7.61914 19.9541C4.9208 19.9541 2.72071 22.1532 2.7207 24.8516V26.3027H22.6748V24.8516C22.6748 22.1532 20.4757 19.9541 17.7773 19.9541ZM12.6982 0C17.2049 7.58957e-05 20.8613 3.65644 20.8613 8.16309C20.8611 12.6695 17.2047 16.3261 12.6982 16.3262C8.1917 16.3262 4.5354 12.6696 4.53516 8.16309C4.53516 3.65639 8.19155 0 12.6982 0ZM12.6982 2.7207C9.69945 2.7207 7.25586 5.16429 7.25586 8.16309C7.2561 11.1617 9.6996 13.6045 12.6982 13.6045C15.6968 13.6044 18.1404 11.1616 18.1406 8.16309C18.1406 5.16434 15.697 2.72078 12.6982 2.7207Z" fill="#3B2963"/>
</svg>
