<svg width="42" height="49" viewBox="0 0 42 49" fill="none" xmlns="http://www.w3.org/2000/svg">
<path d="M41.9395 48.293H0V0H41.9395V48.293ZM20.9854 3.96777C11.7859 3.96777 4.23214 3.99376 4.19141 4.02539C4.15858 4.11276 4.13184 13.1703 4.13184 24.2031V44.3252H37.7188V3.96777H20.9854ZM31.3887 40.2715H10.4619V36.2197H31.3887V40.2715ZM19.958 8.07129C20.4328 8.01643 22.1261 8.0859 22.8604 8.19141C26.8318 8.76359 30.3797 11.2688 32.1865 14.7764C33.0832 16.5176 33.4367 18.0004 33.4434 20.0518C33.4499 21.7209 33.3074 22.6186 32.8262 23.9775C31.1138 28.8848 26.3166 32.185 20.9248 32.166C17.2742 32.1785 13.8018 30.6598 11.417 28.0049C8.7398 25.014 7.74549 20.9602 8.75 17.1377C9.51729 14.257 11.365 11.7477 13.9365 10.0889C15.7496 8.93676 17.4615 8.36466 19.958 8.07129ZM20.9248 22.1201C19.4941 22.1201 18.9057 22.1477 18.9023 22.2148C18.9397 22.5458 18.9874 22.8772 19.04 23.2061C19.4181 25.705 20.5454 28.3522 21.0576 27.9453C21.6972 27.436 22.4995 25.2657 22.8115 23.2061C22.886 22.7136 22.948 22.2691 22.9482 22.2148C22.945 22.1477 22.3562 22.1201 20.9248 22.1201ZM13.7549 22.1201C13.2532 22.1202 12.8425 22.1517 12.8369 22.1914C12.8374 22.5129 13.529 23.9825 13.9707 24.5986C14.3246 25.0903 14.9796 25.8247 15.1973 25.9727C15.3662 26.0864 15.3701 26.0791 15.291 25.8154C15.1744 25.4216 14.876 23.7718 14.8145 23.1748C14.7859 22.8964 14.7439 22.5465 14.7197 22.3945L14.6748 22.1201H13.7549ZM27.1309 22.3945C27.1067 22.5465 27.0647 22.8965 27.0361 23.1748C26.9746 23.7718 26.6762 25.4218 26.5596 25.8154C26.4805 26.0792 26.4853 26.0865 26.6543 25.9727C26.8722 25.8244 27.5261 25.0902 27.8799 24.5986C28.3215 23.9825 29.0141 22.5129 29.0146 22.1914C29.0091 22.1517 28.5977 22.1201 28.0957 22.1201H27.1768L27.1309 22.3945ZM15.3486 14.1221C15.3091 14.0984 14.4597 14.9725 14.1797 15.3232C13.6546 15.9857 12.8376 17.6296 12.8369 18.0273C12.8374 18.1283 13.0049 18.1513 13.7549 18.1514H14.6748L14.7197 17.8779C14.7746 17.4919 14.8232 17.1049 14.8672 16.7168C14.9244 16.2292 15.0613 15.4496 15.1689 14.9854C15.2783 14.5232 15.3588 14.1357 15.3486 14.1221ZM27.5654 15.2031C27.0583 14.577 26.4283 13.9995 26.4971 14.2275C26.7168 15.0611 26.8825 15.9062 26.9902 16.7588C27.0452 17.2229 27.1086 17.7279 27.1328 17.8779L27.1768 18.1514H28.0957C28.8165 18.1514 29.0135 18.1262 29.0146 18.0361C29.014 17.5942 28.1784 15.9606 27.5654 15.2031ZM20.9521 12.1807C20.7079 12.1038 20.0327 13.2935 19.624 14.5254C19.323 15.4284 19.0071 16.9413 18.9717 17.6445L18.9473 18.1104H22.9033L22.8818 17.6865C22.7936 16.057 22.0414 13.5966 21.3271 12.6006C21.1739 12.3862 21.0054 12.1986 20.9521 12.1807Z" fill="#FBFBFB"/>
</svg>
