<svg width="53" height="53" viewBox="0 0 53 53" fill="none" xmlns="http://www.w3.org/2000/svg">
<path d="M42.7495 21.7872L50.4711 14.5216L50.5162 14.4765C52.1065 12.8862 53 10.7292 53 8.48016C53 6.23108 52.1065 4.07412 50.5162 2.48378C48.9258 0.893443 46.7687 0 44.5196 0C42.2705 0 40.1135 0.893443 38.5231 2.48378C38.5231 2.49968 38.4939 2.51293 38.478 2.52883L31.2122 10.2502L9.21874 2.24795C8.83967 2.11009 8.42914 2.08323 8.03534 2.17053C7.64154 2.25783 7.28082 2.45566 6.99554 2.74081L0.635976 9.1002C0.414368 9.32198 0.244715 9.59015 0.13924 9.88539C0.0337657 10.1806 -0.00490448 10.4956 0.0260164 10.8076C0.0569373 11.1196 0.156679 11.4208 0.318055 11.6896C0.479432 11.9584 0.698424 12.1881 0.959254 12.362L17.8889 23.6473L13.9619 27.561H8.47944C7.91797 27.5612 7.37953 27.7842 6.98229 28.181L0.622727 34.5404C0.374709 34.7878 0.191872 35.0928 0.0905677 35.4282C-0.0107365 35.7635 -0.0273505 36.1188 0.0422113 36.4621C0.111773 36.8054 0.265343 37.1262 0.489186 37.3957C0.71303 37.6651 1.00017 37.8749 1.32493 38.0063L11.0816 41.9094L14.9768 51.6472L14.9927 51.6896C15.1274 52.0158 15.3415 52.3031 15.6155 52.5256C15.8894 52.7481 16.2146 52.8987 16.5615 52.9637C16.9083 53.0287 17.266 53.0061 17.6019 52.8979C17.9378 52.7897 18.2414 52.5993 18.4852 52.3441L24.8103 46.0165C25.0082 45.8204 25.1655 45.5873 25.2733 45.3304C25.381 45.0735 25.4371 44.7979 25.4383 44.5194V39.037L29.3494 35.126L40.635 52.0553C40.809 52.3161 41.0386 52.5351 41.3074 52.6964C41.5762 52.8578 41.8775 52.9575 42.1895 52.9885C42.5015 53.0194 42.8164 52.9807 43.1117 52.8752C43.4069 52.7698 43.6751 52.6001 43.8969 52.3785L50.2565 46.0191C50.5416 45.7339 50.7395 45.3731 50.8268 44.9794C50.9141 44.5856 50.8872 44.175 50.7493 43.796L42.7495 21.7872ZM42.731 47.5507L31.4454 30.6241C31.2724 30.3613 31.0431 30.1403 30.774 29.9771C30.505 29.814 30.203 29.7127 29.89 29.6808C29.8184 29.6808 29.7495 29.6808 29.6806 29.6808C29.402 29.6809 29.1261 29.736 28.8687 29.8428C28.6114 29.9497 28.3776 30.1062 28.1808 30.3035L21.8213 36.6629C21.4235 37.0597 21.1995 37.5981 21.1986 38.16V43.6423L17.7353 47.1055L14.688 39.4849C14.5813 39.2203 14.4224 38.9799 14.2207 38.7782C14.019 38.5765 13.7787 38.4176 13.5141 38.311L5.89851 35.2638L9.35918 31.8006H14.839C15.1175 31.8008 15.3932 31.7462 15.6506 31.6398C15.9079 31.5334 16.1418 31.3773 16.3388 31.1805L22.6984 24.8212C22.9205 24.5994 23.0905 24.331 23.1963 24.0355C23.302 23.74 23.3409 23.4247 23.3099 23.1123C23.279 22.8 23.1791 22.4984 23.0174 22.2294C22.8558 21.9604 22.6364 21.7306 22.3751 21.5567L5.44805 10.2687L9.0253 6.69423L31.0771 14.7124C31.4656 14.8551 31.8874 14.881 32.2905 14.7868C32.6936 14.6927 33.0603 14.4825 33.3453 14.1824L41.5439 5.4621C42.343 4.68638 43.4152 4.25623 44.5289 4.26461C45.6426 4.273 46.7082 4.71924 47.4956 5.5069C48.2829 6.29457 48.7287 7.36039 48.7366 8.47404C48.7445 9.5877 48.3139 10.6597 47.5378 11.4585L38.8278 19.6541C38.5277 19.9392 38.3175 20.3059 38.2234 20.7089C38.1292 21.112 38.1551 21.5338 38.2978 21.9223L46.3162 43.9735L42.731 47.5507Z" fill="#3B2963"/>
</svg>
