<svg width="38" height="28" viewBox="0 0 38 28" fill="none" xmlns="http://www.w3.org/2000/svg">
<path d="M4.66667 0C3.42899 0 2.242 0.491665 1.36683 1.36683C0.491665 2.242 0 3.42899 0 4.66667L0 23.3333C0 24.571 0.491665 25.758 1.36683 26.6332C2.242 27.5083 3.42899 28 4.66667 28H32.6667C33.9043 28 35.0913 27.5083 35.9665 26.6332C36.8417 25.758 37.3333 24.571 37.3333 23.3333V4.66667C37.3333 3.42899 36.8417 2.242 35.9665 1.36683C35.0913 0.491665 33.9043 0 32.6667 0H4.66667ZM35 4.66667V16.3333H2.33333V4.66667C2.33333 4.04783 2.57917 3.45434 3.01675 3.01675C3.45434 2.57917 4.04783 2.33333 4.66667 2.33333H32.6667C33.2855 2.33333 33.879 2.57917 34.3166 3.01675C34.7542 3.45434 35 4.04783 35 4.66667ZM32.6667 25.6667H4.66667C4.04783 25.6667 3.45434 25.4208 3.01675 24.9832C2.57917 24.5457 2.33333 23.9522 2.33333 23.3333V21H35V23.3333C35 23.9522 34.7542 24.5457 34.3166 24.9832C33.879 25.4208 33.2855 25.6667 32.6667 25.6667Z" fill="#F9F9F9"/>
</svg>
