<svg width="63" height="50" viewBox="0 0 63 50" fill="none" xmlns="http://www.w3.org/2000/svg">
<path d="M60.1181 45.6068H55.972V16.5843C56.5218 16.5843 57.0491 16.3659 57.4379 15.9771C57.8266 15.5883 58.045 15.0611 58.045 14.5113C58.045 13.9615 57.8266 13.4342 57.4379 13.0454C57.0491 12.6566 56.5218 12.4382 55.972 12.4382H43.5338V4.14607C44.0836 4.14607 44.6109 3.92766 44.9996 3.53889C45.3884 3.15013 45.6068 2.62284 45.6068 2.07304C45.6068 1.52323 45.3884 0.995949 44.9996 0.607179C44.6109 0.218409 44.0836 0 43.5338 0H6.21911C5.66931 0 5.14202 0.218409 4.75325 0.607179C4.36448 0.995949 4.14607 1.52323 4.14607 2.07304C4.14607 2.62284 4.36448 3.15013 4.75325 3.53889C5.14202 3.92766 5.66931 4.14607 6.21911 4.14607V45.6068H2.07304C1.52323 45.6068 0.995948 45.8252 0.607178 46.214C0.218409 46.6028 0 47.13 0 47.6798C0 48.2297 0.218409 48.7569 0.607178 49.1457C0.995948 49.5345 1.52323 49.7529 2.07304 49.7529H60.1181C60.6679 49.7529 61.1952 49.5345 61.5839 49.1457C61.9727 48.7569 62.1911 48.2297 62.1911 47.6798C62.1911 47.13 61.9727 46.6028 61.5839 46.214C61.1952 45.8252 60.6679 45.6068 60.1181 45.6068ZM51.8259 16.5843V45.6068H43.5338V16.5843H51.8259ZM10.3652 4.14607H39.3877V45.6068H33.1686V33.1686C33.1686 32.6188 32.9502 32.0915 32.5614 31.7027C32.1726 31.314 31.6454 31.0956 31.0956 31.0956H18.6573C18.1075 31.0956 17.5802 31.314 17.1915 31.7027C16.8027 32.0915 16.5843 32.6188 16.5843 33.1686V45.6068H10.3652V4.14607ZM29.0225 45.6068H20.7304V35.2416H29.0225V45.6068ZM14.5113 12.4382C14.5113 11.8884 14.7297 11.3611 15.1184 10.9724C15.5072 10.5836 16.0345 10.3652 16.5843 10.3652H20.7304C21.2802 10.3652 21.8075 10.5836 22.1962 10.9724C22.585 11.3611 22.8034 11.8884 22.8034 12.4382C22.8034 12.988 22.585 13.5153 22.1962 13.9041C21.8075 14.2928 21.2802 14.5113 20.7304 14.5113H16.5843C16.0345 14.5113 15.5072 14.2928 15.1184 13.9041C14.7297 13.5153 14.5113 12.988 14.5113 12.4382ZM26.9495 12.4382C26.9495 11.8884 27.1679 11.3611 27.5567 10.9724C27.9454 10.5836 28.4727 10.3652 29.0225 10.3652H33.1686C33.7184 10.3652 34.2457 10.5836 34.6344 10.9724C35.0232 11.3611 35.2416 11.8884 35.2416 12.4382C35.2416 12.988 35.0232 13.5153 34.6344 13.9041C34.2457 14.2928 33.7184 14.5113 33.1686 14.5113H29.0225C28.4727 14.5113 27.9454 14.2928 27.5567 13.9041C27.1679 13.5153 26.9495 12.988 26.9495 12.4382ZM14.5113 22.8034C14.5113 22.2536 14.7297 21.7263 15.1184 21.3375C15.5072 20.9488 16.0345 20.7304 16.5843 20.7304H20.7304C21.2802 20.7304 21.8075 20.9488 22.1962 21.3375C22.585 21.7263 22.8034 22.2536 22.8034 22.8034C22.8034 23.3532 22.585 23.8805 22.1962 24.2693C21.8075 24.658 21.2802 24.8764 20.7304 24.8764H16.5843C16.0345 24.8764 15.5072 24.658 15.1184 24.2693C14.7297 23.8805 14.5113 23.3532 14.5113 22.8034ZM26.9495 22.8034C26.9495 22.2536 27.1679 21.7263 27.5567 21.3375C27.9454 20.9488 28.4727 20.7304 29.0225 20.7304H33.1686C33.7184 20.7304 34.2457 20.9488 34.6344 21.3375C35.0232 21.7263 35.2416 22.2536 35.2416 22.8034C35.2416 23.3532 35.0232 23.8805 34.6344 24.2693C34.2457 24.658 33.7184 24.8764 33.1686 24.8764H29.0225C28.4727 24.8764 27.9454 24.658 27.5567 24.2693C27.1679 23.8805 26.9495 23.3532 26.9495 22.8034Z" fill="#3B2963"/>
</svg>
