<svg width="30" height="30" viewBox="0 0 30 30" fill="none" xmlns="http://www.w3.org/2000/svg">
<path d="M24.8361 0.0458327C25.3949 -0.0236862 25.9602 -0.0145044 26.5151 0.0760013C28.232 0.438024 29.5673 1.78643 29.9136 3.50604C30.0343 4.09891 29.9963 5.05381 29.831 5.57849C29.3771 7.02264 28.2832 8.13232 26.9046 8.5455C26.6934 8.60977 26.254 8.68847 25.9274 8.72126L25.3346 8.78029L25.6651 9.35087C26.5702 10.9301 27.1591 12.6694 27.3991 14.473C27.5342 15.4554 27.5198 17.2026 27.3703 18.1981C26.9177 21.2111 25.6074 23.8318 23.4851 25.9685C21.393 28.0724 18.7407 29.409 15.7186 29.8812C14.8608 30.015 12.6401 30.015 11.7836 29.8812C9.81479 29.573 8.15552 28.9722 6.51067 27.9701C4.81861 26.9405 3.04129 25.1631 2.01162 23.4711C1.0095 21.8262 0.408752 20.167 0.100508 18.1981C-0.0332832 17.3442 -0.0332832 15.1222 0.0991962 14.2631C0.802255 9.72863 3.53054 5.96281 7.59281 3.92315C9.01729 3.20829 10.4536 2.77674 12.1509 2.55638C12.9772 2.44751 14.8241 2.47637 15.7108 2.61016C17.4435 2.86594 19.112 3.44439 20.6309 4.31665L21.2015 4.6472L21.2605 4.05432C21.3602 3.06925 21.6592 2.30192 22.2154 1.6041C22.8161 0.851202 23.9061 0.203234 24.8361 0.0458327ZM14.9211 5.03152C14.3309 4.96724 13.0363 4.96987 12.4657 5.03545C11.0753 5.20597 9.72691 5.62308 8.48344 6.26843C7.93647 6.55569 6.91992 7.21808 6.79531 7.36893C6.73759 7.43713 6.85171 7.57355 7.57707 8.2989L8.42572 9.14887L7.53378 10.0395L6.64184 10.9301L5.78269 10.0723L4.92486 9.21577L4.68088 9.53188C3.86764 10.5891 3.14885 12.1185 2.79076 13.5548C1.99195 16.7579 2.69632 20.2942 4.65859 22.9241L4.93141 23.2914L5.80106 22.423L6.66939 21.556L7.5469 22.4348L8.42572 23.315L7.56002 24.1794L6.69562 25.0425L6.85958 25.1749C7.28719 25.5199 8.14896 26.0525 8.76676 26.3555C11.2878 27.6002 14.184 27.8547 16.8847 27.0703C18.1007 26.7188 19.5238 26.0131 20.4499 25.3009L20.766 25.0569L19.9095 24.1991L19.0516 23.3399L20.8329 21.556L21.6828 22.4047C22.4436 23.1641 22.542 23.2455 22.6207 23.1799C22.7912 23.0395 23.5494 21.838 23.8287 21.2675C24.5502 19.8325 24.9476 18.2558 24.9909 16.649C25.0539 14.7117 24.6905 12.9973 23.8524 11.2856C23.548 10.6625 22.9971 9.76929 22.6482 9.33119L22.5433 9.20003L21.675 10.0657L20.808 10.9301L19.9291 10.0526L19.0516 9.17379L19.916 8.30677L20.7817 7.43844L20.6506 7.33351C20.2125 6.9846 19.3192 6.4337 18.6962 6.12939C17.5104 5.54963 16.2328 5.17711 14.9211 5.03152ZM15.5088 12.7179C16.099 12.1251 16.5962 11.6397 16.6106 11.6397C16.6263 11.6397 17.0277 12.0293 17.5025 12.5055L18.3669 13.3712L17.2743 14.4651L16.1817 15.5577L16.2171 15.9735C16.3102 17.0766 15.7724 18.0329 14.7926 18.4998C14.386 18.6939 14.3729 18.6966 13.7065 18.7018L13.0336 18.7071L11.9489 19.7905L10.8654 20.874L9.98662 19.9951L9.10779 19.1163L10.1912 18.0329L11.2747 16.9481L11.2799 16.2752C11.2852 15.6089 11.2878 15.5958 11.4819 15.1891C11.9502 14.2093 12.8985 13.6755 14.0135 13.7634L14.4332 13.7961L15.5088 12.7179ZM26.2121 2.57475C25.6179 2.38062 24.9647 2.49473 24.4715 2.88037C23.9796 3.266 23.712 3.87199 23.7579 4.49635C23.813 5.17974 24.2288 5.78048 24.8479 6.0743C25.0906 6.18842 25.2113 6.2094 25.6087 6.2094C26.0101 6.2094 26.1255 6.18842 26.3786 6.07036C27.5657 5.5129 27.8726 4.00972 26.9873 3.08761C26.7472 2.83839 26.4692 2.65476 26.2121 2.57475Z" fill="#F7F7F7"/>
</svg>
