<svg width="33" height="30" viewBox="0 0 33 30" fill="none" xmlns="http://www.w3.org/2000/svg">
<path d="M23.8894 23.5659H14.0431C13.8647 24.6214 13.449 25.6227 12.8273 26.4942C12.2056 27.3656 11.3941 28.0846 10.4541 28.5968C9.51404 29.109 8.46999 29.401 7.40064 29.4509C6.33129 29.5008 5.26456 29.3073 4.28091 28.8849C3.29726 28.4625 2.42235 27.8223 1.72217 27.0125C1.022 26.2027 0.514825 25.2445 0.238906 24.2102C-0.0370127 23.1758 -0.0744755 22.0923 0.129343 21.0414C0.333161 19.9905 0.77294 18.9995 1.41551 18.1433C1.60324 17.8933 1.88261 17.728 2.19217 17.684C2.50172 17.6399 2.8161 17.7206 3.06614 17.9084C3.31619 18.0961 3.48142 18.3755 3.52548 18.685C3.56954 18.9946 3.48883 19.3089 3.30111 19.559C2.68614 20.3734 2.35498 21.3669 2.35831 22.3874C2.35831 23.6376 2.85496 24.8366 3.739 25.7207C4.62304 26.6047 5.82206 27.1014 7.07229 27.1014C8.32251 27.1014 9.52153 26.6047 10.4056 25.7207C11.2896 24.8366 11.7863 23.6376 11.7863 22.3874C11.7863 22.0748 11.9104 21.7751 12.1314 21.5541C12.3524 21.333 12.6522 21.2089 12.9648 21.2089H23.8894C24.1488 20.7595 24.5493 20.4084 25.0286 20.2098C25.508 20.0112 26.0395 19.9764 26.5406 20.1107C27.0418 20.245 27.4847 20.5409 27.8005 20.9525C28.1164 21.3642 28.2876 21.8685 28.2876 22.3874C28.2876 22.9062 28.1164 23.4106 27.8005 23.8222C27.4847 24.2339 27.0418 24.5298 26.5406 24.664C26.0395 24.7983 25.508 24.7635 25.0286 24.5649C24.5493 24.3664 24.1488 24.0152 23.8894 23.5659ZM7.07229 24.7444C7.48052 24.7445 7.88178 24.6386 8.23679 24.4371C8.5918 24.2355 8.88837 23.9452 9.09746 23.5946C9.30655 23.244 9.421 22.8451 9.42958 22.4369C9.43817 22.0288 9.3406 21.6254 9.14644 21.2663L14.4158 12.7016C14.5793 12.4355 14.6305 12.1154 14.5582 11.8115C14.4858 11.5077 14.2958 11.245 14.0298 11.0812C13.3999 10.6934 12.8701 10.1628 12.4833 9.53239C12.0964 8.90193 11.8633 8.18928 11.8029 7.45206C11.7424 6.71484 11.8563 5.97374 12.1354 5.2887C12.4144 4.60365 12.8507 3.99388 13.4091 3.5087C13.9674 3.02351 14.6321 2.67653 15.3494 2.49581C16.0666 2.31508 16.8164 2.30569 17.538 2.46839C18.2595 2.63109 18.9327 2.96131 19.503 3.43235C20.0733 3.9034 20.5248 4.50204 20.8209 5.17988C20.9459 5.46646 21.1797 5.69163 21.4707 5.80587C21.7617 5.9201 22.0863 5.91404 22.3728 5.78902C22.6594 5.664 22.8846 5.43025 22.9988 5.13921C23.113 4.84817 23.107 4.52366 22.982 4.23709C22.5574 3.26664 21.9203 2.40396 21.1177 1.71279C20.315 1.02161 19.3673 0.519601 18.3446 0.243835C17.3219 -0.0319311 16.2503 -0.0744043 15.2089 0.119553C14.1676 0.31351 13.1832 0.738942 12.3283 1.36442C11.4735 1.9899 10.7701 2.79944 10.2701 3.73325C9.77008 4.66706 9.48627 5.70126 9.43961 6.75947C9.39295 7.81769 9.58463 8.87286 10.0005 9.84705C10.4163 10.8212 11.0458 11.6896 11.8422 12.3878L7.1371 20.0304C7.11501 20.0304 7.09438 20.0304 7.07229 20.0304C6.44717 20.0304 5.84766 20.2787 5.40564 20.7207C4.96362 21.1628 4.7153 21.7623 4.7153 22.3874C4.7153 23.0125 4.96362 23.612 5.40564 24.054C5.84766 24.496 6.44717 24.7444 7.07229 24.7444ZM25.9282 15.3164C25.0196 15.3165 24.1194 15.491 23.2766 15.8305L18.5744 8.18652C18.8195 7.73248 18.9088 7.21056 18.8287 6.70086C18.7485 6.19115 18.5033 5.72183 18.1307 5.36491C17.7582 5.00798 17.2787 4.78318 16.7661 4.72499C16.2534 4.66681 15.7358 4.77846 15.2927 5.04281C14.8496 5.30716 14.5055 5.7096 14.3131 6.18838C14.1208 6.66716 14.0909 7.19582 14.228 7.69324C14.3651 8.19066 14.6616 8.62934 15.0721 8.94198C15.4826 9.25462 15.9843 9.42393 16.5002 9.42394H16.5651L21.8359 17.9901C21.9999 18.2558 22.2627 18.4455 22.5665 18.5176C22.8704 18.5897 23.1904 18.5383 23.4563 18.3746C24.0768 17.9921 24.7775 17.7587 25.5034 17.6927C26.2292 17.6268 26.9605 17.73 27.6398 17.9944C28.319 18.2588 28.9277 18.677 29.418 19.2164C29.9083 19.7557 30.2669 20.4014 30.4655 21.1027C30.6642 21.804 30.6975 22.5418 30.5629 23.2581C30.4282 23.9744 30.1293 24.6498 29.6896 25.2311C29.2499 25.8124 28.6814 26.2839 28.0288 26.6084C27.3761 26.9329 26.6571 27.1016 25.9282 27.1014C25.6156 27.1014 25.3159 27.2255 25.0949 27.4465C24.8739 27.6675 24.7497 27.9673 24.7497 28.2798C24.7497 28.5924 24.8739 28.8922 25.0949 29.1132C25.3159 29.3342 25.6156 29.4583 25.9282 29.4583C27.8035 29.4583 29.6021 28.7134 30.9281 27.3873C32.2542 26.0612 32.9992 24.2627 32.9992 22.3874C32.9992 20.512 32.2542 18.7135 30.9281 17.3874C29.6021 16.0614 27.8035 15.3164 25.9282 15.3164Z" fill="#F9F9F9"/>
</svg>
