<svg width="25" height="29" viewBox="0 0 25 29" fill="none" xmlns="http://www.w3.org/2000/svg">
<path opacity="0.99" d="M16.5714 0H2.7619C2.0294 0 1.3269 0.339483 0.808943 0.943767C0.290985 1.54805 0 2.36764 0 3.22222V25.7778C0 26.6324 0.290985 27.4519 0.808943 28.0562C1.3269 28.6605 2.0294 29 2.7619 29H22.0952C22.8277 29 23.5302 28.6605 24.0482 28.0562C24.5662 27.4519 24.8571 26.6324 24.8571 25.7778V9.66667L16.5714 0ZM22.0952 25.7778H2.7619V3.22222H15.1905V11.2778H22.0952M19.3333 17.7222H5.52381V14.5H19.3333M15.1905 22.5556H5.52381V19.3333H15.1905" fill="#F9F9F9"/>
</svg>
