<svg width="80" height="48" viewBox="0 0 80 48" fill="none" xmlns="http://www.w3.org/2000/svg">
<path d="M56.9306 47.9968H23.0807C20.5358 47.9968 18.4648 45.8433 18.4648 43.1971C18.4648 43.0435 18.4987 39.3894 21.3082 35.7896C22.9238 33.7225 25.1271 32.0842 27.8566 30.9195C31.1524 29.5116 35.242 28.8013 40.0056 28.8013C44.7692 28.8013 48.8558 29.5148 52.1547 30.9195C54.8842 32.0842 57.0875 33.7225 58.7031 35.7896C61.5157 39.3894 61.5464 43.0435 61.5464 43.1971C61.5464 45.8433 59.4754 47.9968 56.9306 47.9968ZM21.5421 43.2067C21.5452 44.0866 22.2345 44.797 23.0807 44.797H56.9306C57.7768 44.797 58.4661 44.0834 58.4692 43.2067C58.4661 43.0947 58.3707 40.3429 56.1951 37.6583C53.1978 33.9561 47.6003 32.0011 40.0056 32.0011C32.411 32.0011 26.8134 33.9593 23.8162 37.6583C21.6406 40.3461 21.5452 43.0947 21.5421 43.2067Z" fill="#3B2963"/>
<path d="M40.0082 25.5983C33.2198 25.5983 27.6992 19.8579 27.6992 12.7991C27.6992 5.74041 33.2198 0 40.0082 0C46.7967 0 52.3173 5.74041 52.3173 12.7991C52.3173 19.8579 46.7967 25.5983 40.0082 25.5983ZM40.0082 3.19978C34.9185 3.19978 30.7765 7.5067 30.7765 12.7991C30.7765 18.0916 34.9185 22.3985 40.0082 22.3985C45.098 22.3985 49.24 18.0916 49.24 12.7991C49.24 7.5067 45.098 3.19978 40.0082 3.19978Z" fill="#3B2963"/>
<path d="M13.8477 47.9969H4.61589C2.07099 47.9969 0 45.8434 0 43.1972C0 43.0788 0.0246181 40.231 2.04022 37.4376C3.20342 35.8217 4.79129 34.545 6.75766 33.6362C9.10868 32.5483 12.0136 31.9979 15.3894 31.9979C15.9402 31.9979 16.4849 32.0139 17.0111 32.0427C17.8604 32.0907 18.5097 32.8427 18.4666 33.7258C18.4235 34.6089 17.6973 35.2873 16.848 35.2393C16.3772 35.2137 15.8879 35.2009 15.3924 35.2009C3.4096 35.2009 3.09264 42.8132 3.08341 43.21C3.08649 44.0867 3.77579 44.8003 4.62204 44.8003H13.8538C14.7031 44.8003 15.3924 45.517 15.3924 46.4002C15.3924 47.2833 14.7031 48 13.8538 48L13.8477 47.9969Z" fill="#3B2963"/>
<path d="M66.1602 47.9969H75.3919C77.9368 47.9969 80.0078 45.8434 80.0078 43.1972C80.0078 43.0788 79.9832 40.231 77.9676 37.4376C76.8044 35.8217 75.2165 34.545 73.2502 33.6362C70.8991 32.5483 67.9942 31.9979 64.6185 31.9979C64.0676 31.9979 63.5229 32.0139 62.9967 32.0427C62.1474 32.0907 61.4981 32.8427 61.5412 33.7258C61.5843 34.6089 62.3105 35.2873 63.1598 35.2393C63.6307 35.2137 64.1199 35.2009 64.6154 35.2009C76.5982 35.2009 76.9152 42.8132 76.9244 43.21C76.9213 44.0867 76.232 44.8003 75.3858 44.8003H66.154C65.3047 44.8003 64.6154 45.517 64.6154 46.4002C64.6154 47.2833 65.3047 48 66.154 48L66.1602 47.9969Z" fill="#3B2963"/>
<path d="M15.3841 28.7981C10.2943 28.7981 6.15234 24.4912 6.15234 19.1987C6.15234 13.9063 10.2943 9.59937 15.3841 9.59937C20.4739 9.59937 24.6159 13.9063 24.6159 19.1987C24.6159 24.4912 20.4739 28.7981 15.3841 28.7981ZM15.3841 12.7992C11.9899 12.7992 9.2296 15.6694 9.2296 19.1987C9.2296 22.7281 11.9899 25.5983 15.3841 25.5983C18.7783 25.5983 21.5386 22.7281 21.5386 19.1987C21.5386 15.6694 18.7783 12.7992 15.3841 12.7992Z" fill="#3B2963"/>
<path d="M64.6237 28.7981C69.7135 28.7981 73.8555 24.4912 73.8555 19.1987C73.8555 13.9063 69.7135 9.59937 64.6237 9.59937C59.5339 9.59937 55.3919 13.9063 55.3919 19.1987C55.3919 24.4912 59.5339 28.7981 64.6237 28.7981ZM64.6237 12.7992C68.0179 12.7992 70.7782 15.6694 70.7782 19.1987C70.7782 22.7281 68.0179 25.5983 64.6237 25.5983C61.2295 25.5983 58.4692 22.7281 58.4692 19.1987C58.4692 15.6694 61.2295 12.7992 64.6237 12.7992Z" fill="#3B2963"/>
</svg>
