<svg width="28" height="30" viewBox="0 0 28 30" fill="none" xmlns="http://www.w3.org/2000/svg">
<path d="M25.0034 30.004H3.0004C1.34618 30.004 0 28.6578 0 27.0036C0 26.9076 0.0220025 24.6233 1.84825 22.373C2.89839 21.0808 4.33058 20.0567 6.10482 19.3286C8.24711 18.4485 10.9055 18.0044 14.0019 18.0044C17.0983 18.0044 19.7546 18.4505 21.8989 19.3286C23.6732 20.0567 25.1054 21.0808 26.1555 22.373C27.9838 24.6233 28.0038 26.9076 28.0038 27.0036C28.0038 28.6578 26.6576 30.004 25.0034 30.004ZM2.00027 27.0096C2.00227 27.5597 2.45033 28.0037 3.0004 28.0037H25.0034C25.5534 28.0037 26.0015 27.5577 26.0035 27.0096C26.0015 26.9396 25.9395 25.2194 24.5253 23.5411C22.577 21.2268 18.9385 20.0047 14.0019 20.0047C9.06522 20.0047 5.42673 21.2288 3.47847 23.5411C2.06428 25.2214 2.00227 26.9396 2.00027 27.0096Z" fill="#F9F9F9"/>
<path d="M14.0011 16.0021C9.58848 16.0021 6 12.4137 6 8.00107C6 3.58848 9.58848 0 14.0011 0C18.4137 0 22.0021 3.58848 22.0021 8.00107C22.0021 12.4137 18.4137 16.0021 14.0011 16.0021ZM14.0011 2.00027C10.6926 2.00027 8.00027 4.69263 8.00027 8.00107C8.00027 11.3095 10.6926 14.0019 14.0011 14.0019C17.3095 14.0019 20.0019 11.3095 20.0019 8.00107C20.0019 4.69263 17.3095 2.00027 14.0011 2.00027Z" fill="#F9F9F9"/>
</svg>
