<svg width="78" height="45" viewBox="0 0 78 45" fill="none" xmlns="http://www.w3.org/2000/svg">
<path d="M55.4966 44.9959H22.4996C20.0188 44.9959 18 42.9771 18 40.4963C18 40.3524 18.033 36.9267 20.7718 33.552C22.3466 31.6141 24.4944 30.0783 27.1552 28.9864C30.3679 27.6665 34.3545 27.0005 38.9981 27.0005C43.6417 27.0005 47.6254 27.6695 50.8411 28.9864C53.5018 30.0783 55.6496 31.6141 57.2245 33.552C59.9662 36.9267 59.9962 40.3524 59.9962 40.4963C59.9962 42.9771 57.9774 44.9959 55.4966 44.9959ZM20.9997 40.5053C21.0027 41.3303 21.6747 41.9962 22.4996 41.9962H55.4966C56.3216 41.9962 56.9935 41.3273 56.9965 40.5053C56.9935 40.4004 56.9005 37.8206 54.7797 35.3038C51.858 31.8331 46.4015 30.0003 38.9981 30.0003C31.5948 30.0003 26.1383 31.8361 23.2165 35.3038C21.0957 37.8236 21.0027 40.4004 20.9997 40.5053Z" fill="#3B2963"/>
<path d="M38.9989 23.9979C32.3815 23.9979 27 18.6163 27 11.9989C27 5.38152 32.3815 0 38.9989 0C45.6163 0 50.9979 5.38152 50.9979 11.9989C50.9979 18.6163 45.6163 23.9979 38.9989 23.9979ZM38.9989 2.99973C34.0374 2.99973 29.9997 7.03737 29.9997 11.9989C29.9997 16.9605 34.0374 20.9981 38.9989 20.9981C43.9605 20.9981 47.9981 16.9605 47.9981 11.9989C47.9981 7.03737 43.9605 2.99973 38.9989 2.99973Z" fill="#3B2963"/>
<path d="M13.4988 44.996H4.4996C2.01882 44.996 0 42.9772 0 40.4964C0 40.3854 0.0239979 37.7156 1.98882 35.0969C3.12272 33.582 4.67058 32.3851 6.58741 31.5332C8.87921 30.5133 11.711 29.9973 15.0017 29.9973C15.5386 29.9973 16.0696 30.0123 16.5825 30.0393C17.4104 30.0843 18.0434 30.7892 18.0014 31.6172C17.9594 32.4451 17.2515 33.081 16.4235 33.036C15.9646 33.012 15.4876 33 15.0047 33C3.3237 33 3.01473 40.1364 3.00573 40.5084C3.00873 41.3303 3.68067 41.9992 4.5056 41.9992H13.5048C14.3327 41.9992 15.0047 42.6712 15.0047 43.4991C15.0047 44.327 14.3327 44.999 13.5048 44.999L13.4988 44.996Z" fill="#3B2963"/>
<path d="M64.4934 44.996H73.4926C75.9734 44.996 77.9922 42.9772 77.9922 40.4964C77.9922 40.3854 77.9682 37.7156 76.0034 35.0969C74.8695 33.582 73.3216 32.3851 71.4048 31.5332C69.113 30.5133 66.2812 29.9973 62.9905 29.9973C62.4536 29.9973 61.9226 30.0123 61.4097 30.0393C60.5817 30.0843 59.9488 30.7892 59.9908 31.6172C60.0328 32.4451 60.7407 33.081 61.5687 33.036C62.0276 33.012 62.5046 33 62.9875 33C74.6685 33 74.9775 40.1364 74.9865 40.5084C74.9835 41.3303 74.3115 41.9992 73.4866 41.9992H64.4874C63.6595 41.9992 62.9875 42.6712 62.9875 43.4991C62.9875 44.327 63.6595 44.999 64.4874 44.999L64.4934 44.996Z" fill="#3B2963"/>
<path d="M14.9953 26.9976C10.0337 26.9976 5.99609 22.96 5.99609 17.9984C5.99609 13.0368 10.0337 8.99921 14.9953 8.99921C19.9568 8.99921 23.9945 13.0368 23.9945 17.9984C23.9945 22.96 19.9568 26.9976 14.9953 26.9976ZM14.9953 11.9989C11.6866 11.9989 8.99583 14.6897 8.99583 17.9984C8.99583 21.3071 11.6866 23.9979 14.9953 23.9979C18.304 23.9979 20.9948 21.3071 20.9948 17.9984C20.9948 14.6897 18.304 11.9989 14.9953 11.9989Z" fill="#3B2963"/>
<path d="M62.9969 26.9976C67.9585 26.9976 71.9961 22.96 71.9961 17.9984C71.9961 13.0368 67.9585 8.99921 62.9969 8.99921C58.0353 8.99921 53.9977 13.0368 53.9977 17.9984C53.9977 22.96 58.0353 26.9976 62.9969 26.9976ZM62.9969 11.9989C66.3056 11.9989 68.9964 14.6897 68.9964 17.9984C68.9964 21.3071 66.3056 23.9979 62.9969 23.9979C59.6882 23.9979 56.9974 21.3071 56.9974 17.9984C56.9974 14.6897 59.6882 11.9989 62.9969 11.9989Z" fill="#3B2963"/>
</svg>
