<svg width="39" height="45" viewBox="0 0 39 45" fill="none" xmlns="http://www.w3.org/2000/svg">
<path d="M25.7143 0H4.28571C3.14907 0 2.05898 0.526784 1.25526 1.46447C0.451529 2.40215 0 3.67392 0 5V40C0 41.3261 0.451529 42.5979 1.25526 43.5355C2.05898 44.4732 3.14907 45 4.28571 45H34.2857C35.4224 45 36.5124 44.4732 37.3162 43.5355C38.1199 42.5979 38.5714 41.3261 38.5714 40V15L25.7143 0ZM34.2857 40H4.28571V5H23.5714V17.5H34.2857M30 27.5H8.57143V22.5H30M23.5714 35H8.57143V30H23.5714" fill="#3B2963"/>
</svg>
