<svg width="45" height="45" viewBox="0 0 45 45" fill="none" xmlns="http://www.w3.org/2000/svg">
<path d="M20.4758 0.0544417C21.3761 -0.0553995 24.3104 0.0112898 25.1441 0.162322C26.8623 0.450655 28.5236 1.00182 30.0751 1.79425C34.4413 4.00088 37.6248 8.0042 38.7938 12.7548C39.1037 13.9906 39.2312 15.0595 39.2822 16.8562L39.3293 18.5588L39.7686 18.6078C42.2361 18.8863 44.1191 20.4947 44.7193 22.8406C44.8684 23.4232 44.8763 23.7037 44.8743 28.013C44.8743 33.1284 44.8645 33.2226 44.3329 34.2975C43.7798 35.4469 42.8501 36.3746 41.6987 36.9258C41.0357 37.2475 40.1139 37.475 39.4823 37.475H39.1017L38.9233 38.0831C37.9268 41.545 35.0357 44.1302 31.4835 44.7324C30.9441 44.8265 29.983 44.8501 26.625 44.8501H22.4373V41.1723L30.8715 41.1174L31.5011 40.9213C32.9801 40.4603 34.2785 39.3796 34.9474 38.0477C35.0572 37.8281 35.1475 37.6084 35.1475 37.5613C35.1475 37.5044 34.8944 37.475 34.4021 37.475H33.6568V18.5666H35.5398L35.5378 17.2132C35.5358 15.2263 35.3044 13.8238 34.7101 12.2272C33.0134 7.70802 28.9826 4.47948 24.2026 3.81062C23.0296 3.68509 21.8449 3.68509 20.672 3.81062C15.8899 4.47751 11.8572 7.70606 10.1645 12.2272C9.56818 13.8317 9.33477 15.2282 9.33477 17.1936V18.5666H11.2178V37.3299L7.90291 37.2965C5.0588 37.2691 4.52333 37.2455 4.12515 37.1298C2.53638 36.6669 1.21632 35.5508 0.49647 34.0601C0.013953 33.05 0.000222784 32.895 0.000222784 27.9345C-0.00173867 23.7037 0.00610714 23.4212 0.155177 22.8406C0.757343 20.4908 2.63445 18.8863 5.10588 18.6078L5.54524 18.5588L5.59232 16.8562C5.61193 16.0128 5.66882 15.1694 5.76493 14.3299C6.12976 11.8957 7.02026 9.5714 8.37366 7.51776C11.0824 3.40068 15.5173 0.666414 20.4758 0.0544417ZM39.8804 22.4169C39.7157 22.3718 39.0939 22.3326 38.5015 22.3326H37.4227V33.8091L38.5408 33.7698C39.7824 33.7267 40.108 33.6364 40.5493 33.2147C40.716 33.046 40.8612 32.8558 40.9808 32.6498C41.1475 32.3399 41.1495 32.2948 41.1495 28.0208C41.1495 23.739 41.1475 23.7037 40.9789 23.3859C40.7513 22.9622 40.2512 22.5189 39.8804 22.4169ZM7.45178 33.5521V22.3326L6.33375 22.3365C5.59036 22.3385 5.11373 22.3758 4.9117 22.4483C4.54294 22.5797 4.12319 22.9681 3.8937 23.3918C3.72698 23.6997 3.72502 23.7743 3.70344 27.7364C3.68187 31.52 3.67794 32.2242 4.00943 32.691C4.08789 32.7989 4.184 32.895 4.30168 33.0127C4.77047 33.4815 5.03723 33.5521 6.37298 33.5521H7.45178Z" fill="#3B2963"/>
</svg>
