<svg width="44" height="46" viewBox="0 0 44 46" fill="none" xmlns="http://www.w3.org/2000/svg">
<path d="M40.1042 0H3.64583C2.6789 0 1.75157 0.384113 1.06784 1.06784C0.384113 1.75157 0 2.6789 0 3.64583V16.4062C0 28.4193 5.8151 35.6995 10.6937 39.6917C15.9482 43.9893 21.1755 45.4476 21.4033 45.5091C21.7166 45.5943 22.047 45.5943 22.3604 45.5091C22.5882 45.4476 27.8086 43.9893 33.07 39.6917C37.9349 35.6995 43.75 28.4193 43.75 16.4062V3.64583C43.75 2.6789 43.3659 1.75157 42.6822 1.06784C41.9984 0.384113 41.0711 0 40.1042 0ZM40.1042 16.4062C40.1042 24.8532 36.9915 31.7096 30.8529 36.7819C28.1807 38.9824 25.1416 40.6948 21.875 41.8405C18.6512 40.7148 15.6496 39.0327 13.0065 36.8708C6.79492 31.7894 3.64583 24.9056 3.64583 16.4062V3.64583H40.1042V16.4062ZM11.4707 23.1647C11.1286 22.8227 10.9365 22.3587 10.9365 21.875C10.9365 21.3913 11.1286 20.9273 11.4707 20.5853C11.8128 20.2432 12.2767 20.0511 12.7604 20.0511C13.2442 20.0511 13.7081 20.2432 14.0501 20.5853L18.2292 24.7666L29.6999 13.2936C29.8692 13.1243 30.0703 12.9899 30.2916 12.8982C30.5129 12.8066 30.7501 12.7594 30.9896 12.7594C31.2291 12.7594 31.4663 12.8066 31.6876 12.8982C31.9089 12.9899 32.1099 13.1243 32.2793 13.2936C32.4487 13.463 32.583 13.6641 32.6747 13.8853C32.7663 14.1066 32.8135 14.3438 32.8135 14.5833C32.8135 14.8229 32.7663 15.06 32.6747 15.2813C32.583 15.5026 32.4487 15.7037 32.2793 15.873L19.5189 28.6335C19.3496 28.803 19.1485 28.9374 18.9272 29.0291C18.7059 29.1209 18.4687 29.1681 18.2292 29.1681C17.9896 29.1681 17.7524 29.1209 17.5311 29.0291C17.3098 28.9374 17.1088 28.803 16.9395 28.6335L11.4707 23.1647Z" fill="#3B2963"/>
</svg>
